<?xml version="1.0" standalone="no"?>
<!DOCTYPE svg PUBLIC "-//W3C//DTD SVG 20010904//EN"
 "http://www.w3.org/TR/2001/REC-SVG-20010904/DTD/svg10.dtd">
<svg version="1.0" xmlns="http://www.w3.org/2000/svg"
 width="470.000000pt" height="595.000000pt" viewBox="0 0 470.000000 595.000000"
 preserveAspectRatio="xMidYMid meet">

<g transform="translate(0.000000,595.000000) scale(0.100000,-0.100000)"
fill="#000000" stroke="none">
<path d="M4 4073 c2 -1033 5 -1889 6 -1902 1 -17 4 -20 10 -11 5 8 8 -11 8
-43 -1 -32 -4 -57 -8 -57 -13 0 -20 -29 -8 -36 7 -4 8 -3 4 4 -4 7 -2 12 4 12
6 0 10 -6 9 -12 -1 -7 1 -20 5 -29 4 -9 6 -34 3 -55 -3 -35 -4 -34 -5 11 -2
39 -5 47 -13 35 -9 -13 -10 -12 -5 2 3 10 1 18 -4 18 -6 0 -10 -35 -10 -81 0
-44 3 -78 7 -76 8 5 16 -293 17 -623 1 -151 -2 -194 -12 -193 -6 2 -12 -2 -12
-7 0 -6 7 -10 16 -10 10 0 14 -7 12 -22 -2 -13 -9 -22 -16 -21 -9 2 -12 -105
-12 -487 l0 -490 2350 0 2350 0 0 1381 0 1380 -42 -26 c-24 -14 -53 -31 -65
-37 -13 -6 -23 -16 -23 -22 0 -7 -9 -30 -21 -51 -19 -37 -20 -51 -15 -190 3
-82 2 -168 -2 -190 -7 -36 -11 -40 -37 -40 -18 0 -41 11 -59 27 -17 16 -38 28
-48 28 -10 0 -18 5 -18 10 0 6 -13 10 -30 10 -21 0 -30 5 -30 16 0 8 -4 12
-10 9 -6 -3 -7 1 -4 9 3 9 -4 27 -15 42 -12 15 -21 33 -21 41 0 8 -4 12 -8 9
-21 -13 -13 194 13 325 21 108 24 143 16 179 -6 25 -19 89 -31 144 -41 191
-94 259 -269 345 -46 22 -92 48 -102 57 -14 12 -29 15 -56 11 -25 -4 -33 -3
-23 3 18 11 12 18 -20 21 -69 6 -102 -1 -132 -31 -16 -16 -33 -30 -38 -30 -5
0 -13 -6 -17 -14 -5 -8 -36 -15 -88 -19 -109 -8 -159 -28 -230 -92 -33 -30
-64 -55 -69 -55 -5 0 -3 -7 4 -15 9 -11 9 -15 1 -15 -7 0 -9 -5 -5 -11 3 -6 6
-33 5 -59 0 -27 5 -65 13 -86 13 -38 13 -38 27 -16 8 12 17 22 20 22 8 0 5
-38 -5 -73 -12 -39 13 -73 58 -80 39 -6 109 -54 100 -68 -3 -5 -10 -7 -15 -4
-11 8 -12 -25 0 -43 4 -8 23 -14 41 -15 30 -2 34 1 43 33 5 19 13 40 18 46 5
6 7 18 3 27 -3 8 0 25 6 37 9 17 19 21 41 18 16 -3 29 -1 29 4 0 4 4 8 10 8 5
0 7 -6 4 -14 -3 -7 9 -35 26 -62 40 -65 48 -130 25 -214 -32 -119 -32 -112 6
-108 30 3 37 10 62 58 24 46 28 63 23 108 -2 29 -14 73 -26 98 -12 25 -20 47
-17 50 9 9 64 -27 85 -55 10 -14 24 -49 31 -76 9 -37 24 -62 56 -95 24 -25 44
-51 45 -57 0 -7 5 -13 11 -13 6 0 25 -11 43 -25 18 -14 38 -25 43 -25 6 0 13
-7 17 -15 4 -10 20 -15 53 -15 42 0 51 -4 73 -31 21 -27 50 -76 50 -84 0 -1
-19 -5 -42 -9 -70 -11 -126 -42 -194 -108 l-65 -62 -130 -6 c-82 -3 -131 -1
-133 5 -3 6 -8 5 -13 -2 -6 -8 -13 -9 -23 -2 -11 8 -12 12 -2 16 6 2 9 9 6 15
-4 5 4 4 17 -3 37 -20 53 -21 37 -1 -10 12 -10 14 0 8 6 -4 12 -3 12 3 0 6
-14 18 -31 27 -28 14 -31 14 -26 1 4 -11 1 -14 -9 -10 -8 3 -21 0 -28 -6 -10
-8 -16 -9 -21 -1 -3 5 1 10 9 10 20 0 21 16 1 24 -8 3 -15 11 -15 18 0 9 3 9
12 0 15 -15 32 -16 23 -2 -4 6 -1 17 5 25 13 16 6 50 -9 41 -5 -3 -14 1 -21 9
-16 19 -39 8 -33 -16 3 -10 9 -19 15 -19 5 0 3 -10 -3 -22 -12 -22 -12 -22
-19 -3 -7 19 -8 19 -15 2 -7 -17 -8 -17 -21 0 -11 16 -12 13 -5 -17 6 -26 4
-39 -6 -49 -8 -7 -17 -10 -20 -7 -11 11 -42 -25 -36 -41 5 -12 1 -14 -18 -8
-13 4 -34 13 -46 21 -22 14 -22 13 -17 -39 9 -86 12 -94 48 -111 20 -9 33 -22
30 -29 -8 -18 -131 -109 -204 -149 -89 -50 -160 -130 -160 -181 0 -8 -18 -27
-39 -41 -22 -15 -52 -46 -68 -69 -15 -23 -56 -68 -90 -100 -34 -32 -72 -75
-83 -95 -12 -21 -54 -61 -96 -92 -40 -30 -74 -60 -74 -67 0 -40 304 -341 458
-453 l62 -45 -27 -20 c-15 -10 -61 -33 -102 -50 -42 -17 -114 -52 -161 -77
-88 -47 -188 -84 -307 -113 -99 -24 -152 -43 -202 -71 -24 -13 -56 -24 -71
-24 -16 0 -42 -12 -60 -26 -45 -39 -105 -43 -151 -11 -43 29 -58 34 -121 41
-50 6 -67 -9 -23 -20 33 -8 31 -15 -11 -41 -31 -20 -48 -23 -162 -23 -127 -1
-127 -1 -247 44 -66 25 -183 77 -259 115 -77 39 -152 71 -166 71 -35 0 -60 28
-60 67 0 37 60 132 122 190 43 42 45 43 118 45 41 1 98 -1 126 -4 79 -9 222
21 208 44 -4 5 -11 5 -18 -1 -7 -6 -90 -12 -185 -14 -153 -4 -179 -2 -223 15
-28 10 -58 16 -67 12 -9 -3 -30 -8 -47 -10 -24 -3 -33 0 -36 14 -3 12 -16 18
-38 20 -19 1 -36 5 -39 8 -5 5 138 -4 179 -11 8 -1 58 -6 110 -9 52 -4 116 -9
143 -12 43 -5 47 -4 47 15 0 12 -4 21 -10 21 -5 0 -7 -7 -4 -15 7 -17 -18 -19
-51 -5 -17 7 -16 9 9 9 19 1 26 5 20 10 -5 5 -74 17 -154 26 -80 9 -183 20
-230 26 -166 20 -200 22 -200 11 0 -6 6 -9 13 -6 8 3 18 -5 25 -18 8 -18 11
-19 11 -5 1 9 8 17 16 17 18 0 20 -26 3 -33 -7 -2 4 -8 25 -12 20 -4 37 -11
37 -15 0 -4 14 -13 30 -20 17 -7 30 -16 30 -20 0 -13 48 -18 62 -6 8 8 8 6 -1
-6 -7 -10 -18 -15 -24 -11 -6 3 -7 1 -3 -6 4 -6 -12 -33 -38 -63 -43 -49 -46
-56 -46 -108 1 -30 7 -72 14 -92 l14 -38 -67 0 c-90 0 -203 18 -213 33 -4 6
-8 27 -8 46 0 42 56 220 77 243 9 10 13 26 10 37 -6 25 5 42 32 44 l22 1 -23
18 c-13 10 -18 18 -13 18 24 3 -33 19 -67 19 -21 1 -38 6 -38 12 0 9 77 7 190
-6 19 -2 98 -9 175 -15 77 -6 163 -12 190 -15 28 -2 91 -7 140 -11 50 -3 95
-10 100 -14 6 -4 40 -10 78 -14 51 -5 67 -4 67 6 0 7 -7 88 -17 181 -12 120
-21 167 -30 167 -7 0 -13 5 -13 11 0 5 5 7 12 3 8 -5 9 -2 3 12 -17 41 -26
111 -20 157 3 26 1 74 -4 105 -12 70 -35 277 -34 315 0 15 -1 27 -3 27 -7 0
-255 51 -289 60 -22 6 -76 18 -120 26 -156 31 -221 44 -315 64 -52 11 -120 25
-150 30 -91 17 -212 70 -159 70 6 0 9 6 6 14 -3 8 0 16 7 19 14 6 49 -17 39
-26 -3 -4 1 -9 10 -13 9 -3 24 1 33 11 16 16 19 15 44 -12 15 -15 27 -32 26
-37 -1 -9 27 -13 132 -20 35 -2 62 1 62 6 0 5 7 17 16 26 15 15 19 14 45 -16
26 -29 32 -31 74 -26 36 6 46 4 51 -10 4 -10 13 -15 20 -12 7 3 19 -1 26 -8
17 -17 101 -37 166 -39 29 -1 52 -5 52 -8 0 -11 106 -33 158 -32 28 0 52 -3
52 -8 0 -4 13 -10 29 -14 20 -4 33 -15 40 -33 6 -19 10 -21 10 -9 1 10 5 16 9
13 11 -6 35 61 27 74 -3 6 7 18 23 27 l29 17 -32 22 c-18 12 -42 25 -53 28
-40 13 -47 33 -26 77 17 34 23 39 49 37 22 -2 34 -11 45 -34 29 -59 57 -89 86
-92 38 -3 48 -15 32 -41 -15 -25 -2 -54 28 -60 36 -6 44 -22 44 -87 0 -64 0
-64 -28 -64 -35 0 -65 29 -52 50 5 8 10 32 10 53 0 30 -4 37 -19 37 -30 0 -51
-28 -51 -66 l0 -34 -45 7 c-35 4 -45 3 -45 -8 0 -8 -7 -27 -16 -44 -11 -22
-13 -45 -8 -94 6 -54 12 -70 41 -102 l34 -38 -25 -17 c-14 -9 -26 -21 -26 -26
0 -11 49 -79 69 -94 16 -12 16 -11 -34 -80 -13 -18 -14 -32 -4 -90 13 -87 17
-109 18 -109 1 0 3 -41 6 -90 3 -50 9 -113 14 -140 8 -42 7 -52 -7 -64 -15
-12 -13 -13 18 -7 19 3 39 11 45 18 7 8 3 9 -14 5 -18 -5 -21 -3 -12 6 9 9 16
9 31 -1 15 -9 30 -10 64 -1 l43 11 -24 24 c-18 18 -22 30 -17 51 6 24 5 26 -8
16 -17 -15 -28 -7 -28 19 0 15 5 18 23 13 12 -3 18 -3 12 2 -25 20 -21 88 9
155 19 42 31 57 48 60 43 6 57 70 43 196 -5 41 -12 62 -21 62 -16 0 -28 39
-28 100 -1 43 0 45 30 48 41 4 44 14 44 183 0 129 -1 138 -25 173 -31 45 -31
50 -1 69 21 15 24 26 31 117 5 72 4 109 -5 130 -11 26 -9 37 9 81 18 42 23 74
26 187 2 75 -1 160 -7 189 -9 44 -8 57 7 89 13 27 15 46 9 73 -4 20 -9 79 -10
131 -1 52 -5 109 -9 126 -4 18 -2 40 3 50 13 25 -2 121 -23 144 -25 28 -19 58
13 62 21 2 30 11 39 38 15 43 7 191 -13 229 -12 23 -11 28 9 49 21 22 22 32
22 175 0 111 -4 161 -15 184 -13 29 -12 34 4 52 24 26 34 166 16 210 -10 26
-10 37 5 73 16 42 18 91 16 456 0 28 0 77 -1 107 0 30 0 72 0 93 0 20 0 66 0
102 1 36 -4 86 -10 111 -10 39 -9 52 4 77 48 93 33 267 -26 318 -17 14 -44 28
-59 31 -16 3 -33 11 -40 19 -6 7 -43 25 -82 40 -40 15 -86 38 -103 51 -17 12
-37 23 -46 23 -8 0 -23 7 -34 15 -16 12 -131 14 -817 15 l-797 0 4 -1877z
m339 1786 c37 -17 47 -50 47 -149 0 -145 -16 -160 -168 -160 -137 1 -152 16
-152 159 0 98 10 133 44 149 29 14 199 15 229 1z m745 -2539 c19 -24 21 -33
12 -50 -15 -28 -24 -25 -55 15 -21 29 -24 39 -15 50 18 22 32 18 58 -15z
m-358 -116 c0 -8 -7 -14 -15 -14 -15 0 -21 21 -9 33 10 9 24 -2 24 -19z m489
-76 c9 -25 -3 -40 -26 -31 -14 5 -18 35 -6 46 12 13 24 7 32 -15z m-49 -110
c0 -5 -9 -8 -20 -8 -23 0 -26 10 -8 28 9 9 14 9 20 -1 4 -6 8 -15 8 -19z
m2450 -38 c0 -5 -4 -10 -10 -10 -5 0 -10 5 -10 10 0 6 5 10 10 10 6 0 10 -4
10 -10z m-2402 -139 c-6 -28 -34 -36 -60 -15 -36 28 -37 38 -3 44 34 7 67 -8
63 -29z m192 -166 c0 -16 -9 -19 -34 -9 -20 8 -11 24 15 24 10 0 19 -7 19 -15z
m-1161 -66 c-13 -26 -19 -24 -19 6 0 17 4 23 15 19 11 -5 12 -11 4 -25z m911
-116 c0 -20 -34 -12 -38 9 -2 12 2 15 17 11 12 -3 21 -12 21 -20z m3065 -142
c-3 -5 8 -18 24 -27 43 -26 28 -36 -44 -30 -63 6 -135 -12 -135 -33 0 -10
-106 -44 -121 -39 -20 7 80 90 137 113 58 24 151 34 139 16z m-2691 -67 c26
-10 19 -43 -9 -50 -14 -4 -29 -4 -32 -1 -8 9 6 57 16 57 5 0 16 -3 25 -6z
m-430 -49 c-4 -8 -10 -12 -15 -9 -11 6 -2 24 11 24 5 0 7 -7 4 -15z m686 -46
c0 -19 -20 -18 -30 1 -15 28 -1 49 17 25 7 -11 13 -22 13 -26z m-396 5 c9 -22
8 -24 -9 -24 -8 0 -15 9 -15 20 0 24 15 27 24 4z m-1199 -44 c13 -6 15 -9 5
-9 -8 0 -22 4 -30 9 -18 12 -2 12 25 0z m-125 -25 c0 -8 -6 -15 -14 -15 -17 0
-28 14 -19 24 12 12 33 6 33 -9z m331 -23 c-7 -2 -18 1 -23 6 -8 8 -4 9 13 5
13 -4 18 -8 10 -11z m-202 -28 c6 -6 -21 -5 -58 2 -17 4 -31 10 -31 14 0 8 80
-7 89 -16z m31 -34 c0 -4 -27 -2 -60 3 -33 5 -60 13 -60 16 0 4 27 3 60 -3 33
-5 60 -13 60 -16z m40 20 c0 -12 -17 -12 -45 0 -17 7 -15 9 13 9 17 1 32 -3
32 -9z m534 -31 c13 -12 2 -11 -64 6 l-55 15 55 -6 c30 -3 59 -10 64 -15z
m106 -20 c9 -5 -2 -6 -25 -2 -22 3 -47 9 -55 14 -9 5 2 6 25 2 22 -3 47 -9 55
-14z m-747 4 c-7 -2 -21 -2 -30 0 -10 3 -4 5 12 5 17 0 24 -2 18 -5z m622 -14
c36 -14 -46 -9 -90 6 l-40 14 55 -6 c30 -3 64 -9 75 -14z m-540 1 l30 -8 -35
-1 c-19 0 -42 4 -50 9 -12 8 -11 10 5 9 11 -1 34 -5 50 -9z m81 -19 c-3 -5
-15 -7 -26 -4 -28 7 -25 13 6 13 14 0 23 -4 20 -9z m-309 -58 c-3 -10 -5 -2
-5 17 0 19 2 27 5 18 2 -10 2 -26 0 -35z m263 26 c0 -11 -7 -11 -49 -3 -45 9
-38 20 9 16 22 -2 40 -8 40 -13z m413 -6 c-7 -2 -21 -2 -30 0 -10 3 -4 5 12 5
17 0 24 -2 18 -5z m50 -10 c-7 -2 -19 -2 -25 0 -7 3 -2 5 12 5 14 0 19 -2 13
-5z m-533 -12 c23 -7 22 -8 -12 -12 -20 -3 -35 -2 -32 2 2 4 -4 10 -13 12 -12
3 -9 5 7 5 14 0 36 -3 50 -7z m615 -9 c-3 -3 -11 0 -18 7 -9 10 -8 11 6 5 10
-3 15 -9 12 -12z m190 8 c3 -5 1 -10 -4 -10 -6 0 -11 5 -11 10 0 6 2 10 4 10
3 0 8 -4 11 -10z m-402 -7 c-7 -2 -19 -2 -25 0 -7 3 -2 5 12 5 14 0 19 -2 13
-5z m-466 -9 c-3 -3 -12 -4 -19 -1 -8 3 -5 6 6 6 11 1 17 -2 13 -5z m158 -4
c4 -6 -6 -7 -27 -3 -44 8 -48 13 -10 13 17 0 34 -4 37 -10z m445 -12 c19 -6
15 -7 -15 -3 -22 3 -50 5 -62 5 -13 0 -23 5 -23 10 0 11 51 5 100 -12z m-733
-10 c-3 -8 -6 -5 -6 6 -1 11 2 17 5 13 3 -3 4 -12 1 -19z m190 16 c-3 -3 -12
-4 -19 -1 -8 3 -5 6 6 6 11 1 17 -2 13 -5z m140 0 c-3 -3 -12 -4 -19 -1 -8 3
-5 6 6 6 11 1 17 -2 13 -5z m293 -10 c0 -2 -11 -4 -25 -4 -14 0 -25 4 -25 9 0
4 11 6 25 3 14 -2 25 -6 25 -8z m-465 -4 c18 -8 18 -9 -5 -9 -14 0 -32 4 -40
9 -12 8 -12 10 5 9 11 0 29 -4 40 -9z m164 -6 c10 -10 -8 -9 -64 3 l-60 12 60
-5 c33 -3 62 -8 64 -10z m456 6 c3 -5 1 -10 -4 -10 -6 0 -11 5 -11 10 0 6 2
10 4 10 3 0 8 -4 11 -10z m-436 -36 c3 -4 -10 -4 -29 0 -19 4 -56 10 -82 13
-27 3 -48 9 -48 13 0 8 150 -16 159 -26z m258 20 c-3 -3 -12 -4 -19 -1 -8 3
-5 6 6 6 11 1 17 -2 13 -5z m66 -11 c-7 -2 -19 -2 -25 0 -7 3 -2 5 12 5 14 0
19 -2 13 -5z m142 -3 c-3 -5 -12 -7 -20 -3 -21 7 -19 13 6 13 11 0 18 -4 14
-10z m358 3 c-7 -2 -19 -2 -25 0 -7 3 -2 5 12 5 14 0 19 -2 13 -5z m-548 -13
c8 -13 -15 -13 -35 0 -12 8 -11 10 7 10 12 0 25 -4 28 -10z m620 0 c3 -5 1
-10 -4 -10 -6 0 -11 5 -11 10 0 6 2 10 4 10 3 0 8 -4 11 -10z m-619 -28 c-10
-2 -22 0 -28 6 -6 6 0 7 19 4 21 -5 23 -7 9 -10z m104 8 c0 -5 -4 -10 -9 -10
-6 0 -13 5 -16 10 -3 6 1 10 9 10 9 0 16 -4 16 -10z m97 -16 c-3 -3 -12 -4
-19 -1 -8 3 -5 6 6 6 11 1 17 -2 13 -5z m-162 -14 c8 -13 -25 -13 -45 0 -12 8
-9 10 12 10 15 0 30 -4 33 -10z m39 -25 c-4 -8 -11 -15 -16 -15 -6 0 -5 6 2
15 7 8 14 15 16 15 2 0 1 -7 -2 -15z m43 9 c-3 -3 -12 -4 -19 -1 -8 3 -5 6 6
6 11 1 17 -2 13 -5z m-84 -11 c-7 -2 -19 -2 -25 0 -7 3 -2 5 12 5 14 0 19 -2
13 -5z m144 1 c-3 -3 -12 -4 -19 -1 -8 3 -5 6 6 6 11 1 17 -2 13 -5z m-220
-10 c-3 -3 -12 -4 -19 -1 -8 3 -5 6 6 6 11 1 17 -2 13 -5z m266 -1 c-7 -2 -19
-2 -25 0 -7 3 -2 5 12 5 14 0 19 -2 13 -5z m-233 -11 l-25 -5 25 -8 25 -7 -27
-1 c-27 -1 -35 8 -21 22 3 4 16 6 27 6 17 -1 17 -3 -4 -7z m374 -11 c3 -4 -11
-5 -30 -3 -19 2 -34 7 -34 11 0 9 59 1 64 -8z m-235 -22 c36 -6 70 -15 76 -20
6 -6 -4 -7 -25 -3 -90 15 -140 26 -140 30 0 6 18 5 89 -7z m-69 -18 c0 -17
-23 -28 -48 -22 -26 5 -26 5 8 12 l35 6 -32 2 c-18 0 -33 5 -33 9 0 4 16 6 35
4 19 -2 35 -7 35 -11z m28 -33 c-2 -6 -10 -13 -16 -14 -9 -2 -9 -1 -1 3 8 4 7
8 -2 14 -11 7 -10 9 4 9 10 0 17 -5 15 -12z m992 -3 c0 -8 -4 -15 -10 -15 -5
0 -10 7 -10 15 0 8 5 15 10 15 6 0 10 -7 10 -15z m-953 -1 c-3 -3 -12 -4 -19
-1 -8 3 -5 6 6 6 11 1 17 -2 13 -5z m103 -14 c10 -6 2 -7 -25 -3 -49 7 -58 13
-19 13 16 0 36 -5 44 -10z m-243 -6 c-3 -3 -12 -4 -19 -1 -8 3 -5 6 6 6 11 1
17 -2 13 -5z m308 -4 c3 -5 1 -10 -4 -10 -6 0 -11 5 -11 10 0 6 2 10 4 10 3 0
8 -4 11 -10z m42 -6 c-3 -3 -12 -4 -19 -1 -8 3 -5 6 6 6 11 1 17 -2 13 -5z
m-250 -10 c-3 -3 -12 -4 -19 -1 -8 3 -5 6 6 6 11 1 17 -2 13 -5z m63 -4 c12
-8 9 -10 -12 -10 -16 0 -28 5 -28 10 0 13 20 13 40 0z m227 4 c-3 -3 -12 -4
-19 -1 -8 3 -5 6 6 6 11 1 17 -2 13 -5z m-327 -14 c0 -13 -20 -13 -40 0 -12 8
-9 10 13 10 15 0 27 -4 27 -10z m190 -6 c0 -2 -12 -4 -26 -4 -14 0 -23 4 -20
9 6 8 46 4 46 -5z m570 -10 c0 -8 -4 -12 -10 -9 -5 3 -10 10 -10 16 0 5 5 9
10 9 6 0 10 -7 10 -16z m-775 -4 c19 -8 19 -9 -2 -9 -12 -1 -25 4 -28 9 -7 12
2 12 30 0z m115 1 c0 -5 -9 -7 -20 -4 -11 3 -20 7 -20 9 0 2 9 4 20 4 11 0 20
-4 20 -9z m75 -10 c2 -4 -9 -5 -26 -3 -16 2 -29 8 -29 12 0 9 48 1 55 -9z m68
-8 c-7 -2 -21 -2 -30 0 -10 3 -4 5 12 5 17 0 24 -2 18 -5z m102 -12 l40 -9
-45 -1 c-25 0 -52 4 -60 9 -12 8 -12 10 5 9 11 0 38 -4 60 -8z m492 -38 c-3
-10 -5 -4 -5 12 0 17 2 24 5 18 2 -7 2 -21 0 -30z m-832 17 c7 -12 -12 -12
-40 0 -18 8 -17 9 7 9 15 1 30 -3 33 -9z m55 -10 c0 -13 -11 -13 -30 0 -12 8
-11 10 8 10 12 0 22 -4 22 -10z m43 -7 c-7 -2 -19 -2 -25 0 -7 3 -2 5 12 5 14
0 19 -2 13 -5z m-110 -10 c-7 -2 -19 -2 -25 0 -7 3 -2 5 12 5 14 0 19 -2 13
-5z m47 3 c0 -3 -4 -8 -10 -11 -5 -3 -10 -1 -10 4 0 6 5 11 10 11 6 0 10 -2
10 -4z m138 -3 c-10 -2 -28 -2 -40 0 -13 2 -5 4 17 4 22 1 32 -1 23 -4z m81
-9 c2 -2 -10 -4 -27 -4 -18 0 -32 5 -32 10 0 9 47 4 59 -6z m-299 -4 c12 -8
11 -10 -7 -10 -13 0 -23 5 -23 10 0 13 11 13 30 0z m347 -6 c-3 -3 -12 -4 -19
-1 -8 3 -5 6 6 6 11 1 17 -2 13 -5z m50 -10 c-3 -3 -12 -4 -19 -1 -8 3 -5 6 6
6 11 1 17 -2 13 -5z m53 -4 c0 -13 -11 -13 -30 0 -12 8 -11 10 8 10 12 0 22
-4 22 -10z m-447 -7 c-7 -2 -19 -2 -25 0 -7 3 -2 5 12 5 14 0 19 -2 13 -5z
m577 -14 c19 -11 -77 1 -105 13 -12 5 1 6 35 2 30 -3 62 -10 70 -15z m-627
-26 c-7 -2 -21 -2 -30 0 -10 3 -4 5 12 5 17 0 24 -2 18 -5z m28 -23 c11 0 19
-4 19 -8 0 -10 -87 1 -98 13 -4 4 8 5 27 1 18 -3 42 -6 52 -6z m107 -11 c-2
-6 -7 -10 -11 -10 -4 1 -22 2 -39 2 l-33 2 35 7 c52 11 52 11 48 -1z m-145
-16 c-7 -2 -19 -2 -25 0 -7 3 -2 5 12 5 14 0 19 -2 13 -5z m27 -23 c12 -8 11
-10 -7 -10 -13 0 -23 5 -23 10 0 13 11 13 30 0z m89 -6 c17 -4 31 -10 31 -14
0 -4 -16 -4 -36 0 -26 6 -37 5 -40 -5 -5 -13 -28 -14 -40 -2 -4 4 2 7 14 7 12
0 22 5 22 10 0 12 7 12 49 4z m84 -21 c-7 -2 -21 -2 -30 0 -10 3 -4 5 12 5 17
0 24 -2 18 -5z m146 -19 c2 -2 -10 -4 -27 -4 -17 0 -34 5 -37 10 -6 10 54 5
64 -6z m31 -4 c0 -5 -2 -10 -4 -10 -3 0 -8 5 -11 10 -3 6 -1 10 4 10 6 0 11
-4 11 -10z m-313 -6 c-3 -3 -12 -4 -19 -1 -8 3 -5 6 6 6 11 1 17 -2 13 -5z
m123 -16 c19 -11 -79 1 -100 13 -9 5 6 6 35 2 28 -3 57 -10 65 -15z m263 15
c-7 -2 -19 -2 -25 0 -7 3 -2 5 12 5 14 0 19 -2 13 -5z m50 -10 c-7 -2 -19 -2
-25 0 -7 3 -2 5 12 5 14 0 19 -2 13 -5z m-143 -25 c9 -5 -8 -6 -45 -2 -85 9
-113 23 -35 17 36 -3 72 -10 80 -15z m-273 6 c-3 -3 -12 -4 -19 -1 -8 3 -5 6
6 6 11 1 17 -2 13 -5z m102 -10 c2 -2 -7 -4 -22 -4 -14 0 -29 5 -32 10 -6 10
42 4 54 -6z m-63 -13 c-5 -8 -56 -3 -56 5 0 2 14 4 31 4 16 0 28 -4 25 -9z
m89 -10 c3 -6 -4 -9 -15 -8 -11 1 -20 5 -20 9 0 11 28 10 35 -1z m-148 -7 c-3
-3 -12 -4 -19 -1 -8 3 -5 6 6 6 11 1 17 -2 13 -5z m196 -1 c-7 -2 -19 -2 -25
0 -7 3 -2 5 12 5 14 0 19 -2 13 -5z m57 -9 c0 -2 -7 -4 -15 -4 -8 0 -15 4 -15
10 0 5 7 7 15 4 8 -4 15 -8 15 -10z m-192 -1 c-10 -2 -26 -2 -35 0 -10 3 -2 5
17 5 19 0 27 -2 18 -5z m242 -3 c12 -8 11 -10 -7 -10 -12 0 -25 5 -28 10 -8
13 15 13 35 0z m-162 -7 c-10 -2 -26 -2 -35 0 -10 3 -2 5 17 5 19 0 27 -2 18
-5z m-85 -23 c-5 -21 -33 -28 -33 -9 0 5 5 7 10 4 6 -3 10 -2 10 4 0 5 -10 12
-22 14 -17 3 -15 5 9 6 26 1 30 -2 26 -19z m74 4 c-3 -3 -12 -4 -19 -1 -8 3
-5 6 6 6 11 1 17 -2 13 -5z m66 -11 c-7 -2 -19 -2 -25 0 -7 3 -2 5 12 5 14 0
19 -2 13 -5z m192 -23 c-5 -8 -165 11 -165 19 0 4 38 2 85 -3 46 -5 82 -12 80
-16z m-249 2 c-16 -2 -32 0 -37 5 -5 5 7 7 29 4 34 -5 35 -6 8 -9z m-691 -11
c3 -5 2 -12 -3 -15 -5 -3 -9 1 -9 9 0 17 3 19 12 6z m615 0 c0 -4 -11 -6 -25
-3 -14 2 -25 6 -25 8 0 2 11 4 25 4 14 0 25 -4 25 -9z m25 -1 c3 -5 1 -10 -4
-10 -6 0 -11 5 -11 10 0 6 2 10 4 10 3 0 8 -4 11 -10z m389 2 c2 -4 -11 -6
-30 -4 -19 2 -34 6 -34 8 0 8 59 4 64 -4z m-319 -12 c4 -7 -3 -8 -22 -4 -38 9
-42 14 -10 14 14 0 29 -5 32 -10z m-178 -6 c-3 -3 -12 -4 -19 -1 -8 3 -5 6 6
6 11 1 17 -2 13 -5z m226 -1 c-7 -2 -19 -2 -25 0 -7 3 -2 5 12 5 14 0 19 -2
13 -5z m80 -10 c-7 -2 -21 -2 -30 0 -10 3 -4 5 12 5 17 0 24 -2 18 -5z m-733
-13 c0 -12 -17 -12 -45 0 -17 7 -15 9 13 9 17 1 32 -3 32 -9z m470 -6 c0 -2
-9 -4 -20 -4 -11 0 -20 4 -20 9 0 5 9 7 20 4 11 -3 20 -7 20 -9z m-492 -10
c12 -4 22 -11 22 -17 0 -12 -110 -1 -124 13 -11 11 64 14 102 4z m102 -19 c0
-16 -12 -18 -47 -9 -35 10 -27 24 12 24 24 0 35 -5 35 -15z m-176 -30 c-3 -7
-12 -11 -20 -8 -17 6 -18 20 -1 26 18 6 27 -1 21 -18z m56 5 c0 -5 -4 -10 -10
-10 -5 0 -10 5 -10 10 0 6 5 10 10 10 6 0 10 -4 10 -10z m58 -11 c-2 -6 -8
-10 -13 -10 -5 0 -11 4 -13 10 -2 6 4 11 13 11 9 0 15 -5 13 -11z m48 -16
c-10 -10 -19 5 -10 18 6 11 8 11 12 0 2 -7 1 -15 -2 -18z m369 17 c8 -13 -5
-13 -25 0 -13 8 -13 10 2 10 9 0 20 -4 23 -10z m-294 -15 c-1 -15 -24 -12 -29
3 -3 9 2 13 12 10 10 -1 17 -7 17 -13z m69 -5 c0 -5 -7 -7 -15 -4 -8 4 -12 10
-9 15 6 11 24 2 24 -11z m55 -1 c10 -15 -1 -23 -20 -15 -9 3 -13 10 -10 16 8
13 22 13 30 -1z m63 -12 c2 -12 -3 -17 -17 -17 -12 0 -21 6 -21 13 0 31 32 34
38 4z m52 -8 c0 -5 -7 -9 -15 -9 -15 0 -20 12 -9 23 8 8 24 -1 24 -14z m53
-22 c-6 -31 -22 -51 -32 -41 -3 3 1 9 9 14 11 7 11 11 1 24 -16 20 -7 48 13
40 11 -4 13 -14 9 -37z m1047 39 c0 -3 -4 -8 -10 -11 -5 -3 -10 -1 -10 4 0 6
5 11 10 11 6 0 10 -2 10 -4z m-990 -28 c1 -21 2 -22 14 -5 7 9 19 17 26 17 9
0 10 -3 1 -13 -6 -8 -7 -18 -3 -22 4 -5 1 -5 -5 -1 -7 4 -13 3 -13 -2 0 -5
-27 -26 -61 -47 -56 -35 -74 -57 -84 -108 -2 -10 -15 -27 -29 -38 -15 -12 -28
-34 -31 -57 -4 -20 -15 -53 -26 -73 -10 -20 -16 -39 -12 -43 3 -3 1 -6 -6 -6
-9 0 -11 8 -7 26 4 15 3 23 -3 20 -15 -10 -23 50 -16 115 8 65 27 88 91 109
37 13 137 107 128 121 -7 13 4 29 22 29 8 0 14 -10 14 -22z m2184 -499 c-20
-22 -28 -23 -69 -5 l-30 14 55 26 c54 25 55 25 58 5 2 -11 -4 -29 -14 -40z"/>
<path d="M180 5703 c0 -63 1 -65 18 -50 21 19 48 22 57 7 15 -25 25 -5 25 50
l0 60 -50 0 -50 0 0 -67z"/>
<path d="M3280 5236 c0 -8 5 -18 10 -21 22 -13 7 -34 -52 -76 -89 -61 -216
-194 -294 -306 -155 -223 -251 -553 -223 -772 36 -290 193 -466 426 -479 93
-5 222 19 265 49 14 11 29 19 33 19 16 0 136 93 190 147 215 216 343 484 377
789 45 411 -193 696 -539 645 -74 -10 -88 -10 -109 4 -30 19 -84 20 -84 1z
m237 -233 c8 -20 -34 -146 -63 -189 -13 -19 -20 -41 -17 -52 3 -13 -3 -28 -17
-42 -16 -16 -22 -33 -21 -68 0 -59 -7 -82 -24 -82 -21 0 -29 39 -12 58 13 14
17 53 20 191 4 198 6 201 84 201 31 0 45 -5 50 -17z m207 -86 c15 -19 26 -40
26 -48 0 -19 -130 -146 -154 -151 -11 -2 -21 -13 -23 -28 -3 -23 -37 -59 -56
-60 -13 0 -20 28 -13 55 4 15 18 30 32 36 22 8 25 14 20 35 -5 20 3 43 35 98
24 39 47 77 52 84 18 23 55 13 81 -21z m-476 -28 c12 -23 11 -64 -4 -122 -5
-24 -2 -33 20 -53 21 -20 26 -34 26 -72 0 -54 -11 -77 -34 -69 -16 6 -56 77
-56 100 0 8 -7 20 -15 27 -20 17 -65 99 -65 120 0 21 86 103 103 97 7 -2 18
-14 25 -28z m572 -228 c15 -28 12 -103 -4 -127 -10 -14 -36 -24 -84 -34 -38
-7 -75 -10 -83 -8 -8 3 -21 0 -29 -7 -8 -7 -44 -18 -80 -24 -36 -7 -77 -14
-92 -18 -46 -9 -32 14 25 43 28 15 65 37 80 50 16 13 37 24 47 24 10 0 27 11
37 24 21 29 130 96 155 96 10 0 22 -9 28 -19z m-765 -37 c22 -20 79 -67 128
-105 48 -39 87 -74 87 -79 0 -22 -73 -16 -103 8 -7 6 -39 16 -72 23 -45 9 -66
19 -84 41 -13 16 -35 34 -48 39 -21 8 -24 14 -18 37 7 30 42 72 59 72 6 -1 29
-17 51 -36z m395 -72 c0 -13 -39 -46 -46 -39 -9 9 16 47 31 47 8 0 15 -4 15
-8z m470 -132 c0 -5 -7 -10 -15 -10 -8 0 -15 5 -15 10 0 6 7 10 15 10 8 0 15
-4 15 -10z m-280 -79 c36 -7 80 -17 99 -23 32 -10 33 -12 28 -50 -6 -44 -46
-112 -76 -127 -15 -8 -29 -3 -71 29 -29 22 -61 48 -71 57 -9 10 -47 41 -83 68
-106 81 -99 101 27 75 45 -9 111 -22 147 -29z m-435 10 c0 -18 -102 -80 -131
-81 -11 0 -32 -12 -47 -28 -14 -15 -51 -41 -81 -57 -46 -25 -56 -27 -70 -16
-27 23 -17 134 12 146 9 3 46 9 82 12 36 3 70 10 76 15 33 26 159 33 159 9z
m94 -49 c13 -24 -6 -217 -25 -253 -7 -15 -11 -41 -8 -60 7 -41 -11 -178 -25
-192 -15 -15 -102 -10 -119 7 -13 13 -11 25 18 103 18 48 39 95 46 104 8 8 14
25 14 37 0 11 14 56 30 99 50 128 34 138 -43 28 -26 -38 -54 -73 -61 -77 -8
-4 -17 -20 -21 -35 -9 -37 -91 -162 -112 -170 -20 -8 -73 51 -73 82 0 22 101
127 133 138 9 4 21 17 26 29 7 19 71 85 157 160 25 22 51 22 63 0z m118 -78
c23 -43 40 -85 38 -91 -2 -7 6 -25 19 -40 12 -16 35 -50 50 -77 l28 -48 -19
-27 c-29 -39 -96 -83 -115 -76 -21 8 -30 43 -33 137 -2 42 -8 91 -13 110 -16
49 -33 178 -26 189 12 20 30 1 71 -77z m417 -35 c-7 -11 -34 -12 -34 -1 0 14
11 21 26 15 8 -3 11 -9 8 -14z m-674 -505 c0 -8 -4 -12 -10 -9 -5 3 -10 10
-10 16 0 5 5 9 10 9 6 0 10 -7 10 -16z"/>
<path d="M3535 2907 c-5 -12 5 -32 30 -63 20 -25 40 -43 43 -40 3 3 -2 14 -11
24 -10 10 -17 25 -17 33 0 8 -9 25 -20 39 -17 22 -19 23 -25 7z"/>
<path d="M3197 2794 c-18 -18 -6 -63 21 -82 41 -28 60 -33 66 -16 9 23 8 24
-15 24 -12 0 -18 4 -13 11 3 6 3 14 -2 18 -5 3 -14 15 -20 25 -12 22 -27 30
-37 20z"/>
<path d="M3602 2761 c-8 -5 -12 -23 -10 -47 l3 -39 19 28 c21 31 12 74 -12 58z"/>
<path d="M3341 2434 c0 -11 3 -14 6 -6 3 7 2 16 -1 19 -3 4 -6 -2 -5 -13z"/>
<path d="M3220 2410 c0 -5 4 -10 9 -10 6 0 13 5 16 10 3 6 -1 10 -9 10 -9 0
-16 -4 -16 -10z"/>
<path d="M3602 2399 c-9 -14 -10 -19 -2 -14 7 4 16 2 20 -5 10 -16 30 -4 29
18 0 11 -3 12 -6 5 -2 -7 -9 -13 -15 -13 -6 0 -8 7 -4 15 8 22 -7 18 -22 -6z"/>
<path d="M3270 2350 c0 -11 4 -20 9 -20 5 0 7 9 4 20 -3 11 -7 20 -9 20 -2 0
-4 -9 -4 -20z"/>
<path d="M1542 1440 c0 -14 2 -19 5 -12 2 6 2 18 0 25 -3 6 -5 1 -5 -13z"/>
<path d="M2192 1230 c2 -22 0 -40 -5 -40 -14 0 3 -111 19 -127 18 -18 18 -25
0 -21 -8 2 -16 -1 -18 -7 -2 -5 8 -12 21 -13 19 -3 21 -6 10 -13 -8 -5 -9 -9
-3 -9 6 0 21 8 32 19 25 21 30 53 7 45 -17 -7 -20 7 -4 23 7 7 7 23 -1 54 -30
117 -66 172 -58 89z"/>
<path d="M1841 1046 c-10 -12 -6 -26 10 -26 11 0 19 29 10 35 -5 2 -14 -1 -20
-9z"/>
<path d="M1797 993 c-3 -5 -2 -15 2 -22 5 -7 11 -9 14 -4 3 5 2 15 -2 22 -5 7
-11 9 -14 4z"/>
<path d="M1455 916 c49 -12 65 -12 52 0 -3 4 -28 8 -54 10 l-48 3 50 -13z"/>
<path d="M1540 905 c0 -16 16 -20 24 -6 3 5 -1 11 -9 15 -9 3 -15 0 -15 -9z"/>
<path d="M1590 890 c0 -19 3 -21 12 -12 9 9 9 15 0 24 -9 9 -12 7 -12 -12z"/>
<path d="M1468 883 c6 -2 18 -2 25 0 6 3 1 5 -13 5 -14 0 -19 -2 -12 -5z"/>
</g>
</svg>
